<svg width="148" height="210" viewBox="0 0 148 210" fill="none" xmlns="http://www.w3.org/2000/svg">
<path d="M78.0756 102.774L98.5155 6.11006C99.3079 2.36273 96.5746 1.4259 95.1089 1.4259L54.229 112.142L60.6165 115.123L78.0756 102.774Z" fill="#D9D9D9" stroke="black"/>
<path d="M93.8316 110.439L47.4159 1C44.0093 1 44.0093 4.69054 44.4351 6.53582L70.4109 104.477L87.87 114.271L93.8316 110.439Z" fill="#D9D9D9" stroke="black"/>
<circle cx="74.243" cy="85.3147" r="4.60998" fill="#A6A6A6" stroke="black"/>
<circle cx="74.2432" cy="85.3148" r="2.05499" fill="#D9D9D9" stroke="black"/>
<path fill-rule="evenodd" clip-rule="evenodd" d="M85.3161 115.975L95.1103 110.013C95.5361 109.871 96.5581 110.013 97.2394 111.716C98.0911 113.845 107.459 132.156 117.679 138.969C125.628 143.37 140.674 153.022 144.507 166.649C148.339 180.275 150.894 196.031 135.564 207.528C131.59 209.658 121.938 210.509 113.421 201.993C111.292 199.154 106.437 191.347 104.053 182.83C101.668 174.314 90.5681 136.982 85.3161 119.381C85.0323 118.418 84.6348 116.389 85.3161 115.975ZM109.163 156.003C110.525 152.255 113.137 150.751 114.273 150.467C128.751 150.467 136.416 168.778 138.119 176.869C139.823 184.959 137.268 204.548 127.473 200.715C118.954 197.381 114.623 184.059 112.239 176.724C111.882 175.627 111.569 174.663 111.292 173.888C109.163 167.926 107.459 160.687 109.163 156.003Z" fill="#13AAEF" stroke="black"/>
<path fill-rule="evenodd" clip-rule="evenodd" d="M63.1157 116.016L53.3216 110.055C52.8958 109.913 51.8738 110.055 51.1925 111.758C50.3408 113.887 40.9725 132.198 30.7525 139.011C22.8037 143.411 7.75763 153.064 3.92514 166.69C0.0926514 180.317 -2.46236 196.073 12.8676 207.57C16.842 209.699 26.4942 210.551 35.0108 202.034C37.14 199.195 41.9945 191.388 44.3792 182.872C46.7638 174.355 57.8638 137.024 63.1157 119.423C63.3996 118.46 63.7971 116.431 63.1157 116.016ZM39.2692 156.044C37.9066 152.297 35.2948 150.792 34.1592 150.509C19.681 150.509 12.016 168.819 10.3127 176.91C8.60934 185.001 11.1643 204.589 20.9585 200.757C29.4781 197.423 33.8089 184.1 36.1932 176.765C36.5499 175.668 36.863 174.705 37.1401 173.929C39.2693 167.968 40.9726 160.729 39.2692 156.044Z" fill="#13AAEF" stroke="black"/>
</svg>
